<svg xmlns="http://www.w3.org/2000/svg" viewBox="0 0 90 80">
  <g transform="matrix(.73333 0 0 .73333 20 5)">
   <path fill="#f47421" d="m32.5 50c0 25-20 45-45 45s-45-20-45-45c0-25 20-45 45-45 25 0 45 20 45 45"/>
   <path fill="#fff" d="m0 29c3 1.6 6.5 0.7 8-2.2 1.7-2.9 0.7-6.5-2-8.2-2.9-1.7-6.5-0.7-8.2 2.2-1.6 3-0.7 6.5 2 8zm-12 39c-2.6 0-5-0.6-7.4-1.6l-4 7.5c3 2 7 2.702 11.568 2.7 2.4162 0 4.7-0.3 6.9-0.9 0.4-2.4 1.8-4.6 4.1-6 2-1.3 5-1.4 7-0.6 4-4 7-10 7.7-17l-8.5-0c-1 9-8 16-17 16zm0-35c9.2 0 16.7 7 17.5 16l8.5-0.1c-0.4-6.6-3-13-8-17-2 0.8-5 0.7-7.2-0.6-2-1-4-3.5-4-6-2-0.6-4.5-0.9-6.9-0.9-4 0-8 1-11.6 2.7l4 7.5c2-1 4.7-1.6 7-1.6zm-17.8 17.5c0-6 3-11 7.5-14.3l-4.4-7.4c-5.3 3.5-9 9-10.8 15.2 2 1.5 3 4 3 6.5 0 2.6-1 5-3 6.5 2 6.3 5.5 11.6 10.8 15.2l4.4-7.4c-4.5-3.2-7.5-8.4-7.5-14.4zm29.9 21.3c-2.8 1.6-3.8 5-2 8 2 3 5 4 8.2 2.2 3-1.6 3.8-5.3 2.2-8.2-1.7-3-5-4-8-2.2zm-43-27c-3 0-6 2.7-6 6 0 3 2.7 6 6 6 3 0 6-2.7 6-6 0-3-3-6-6-6"/>
 </g>
</svg>
